<svg width="370" height="73" viewBox="0 0 370 73" fill="none" xmlns="http://www.w3.org/2000/svg">
<path d="M55.8723 48.3645L69.668 72.5424H41.8007L27.8594 48.3645H55.8723Z" fill="url(#paint0_linear_2_1407)"/>
<path d="M69.6605 72.5465L83.5788 48.3686L55.7192 0.0012207H27.8594L69.6605 72.5465Z" fill="#FF414C"/>
<path d="M13.9298 24.1726H41.7896L13.9414 72.5401L0 48.3621L13.9298 24.1726Z" fill="#FF414C"/>
<path d="M146.294 23.1503L145.599 30.6228C142.619 24.8218 135.765 21.6755 128.415 21.6755C114.608 21.6755 105.371 31.6061 105.371 46.8461C105.371 61.9878 113.714 73 128.316 73C136.262 73 142.122 69.1654 145.201 64.1509L145.996 71.7218H157.32V23.1503H146.294ZM145.003 47.436C145.003 56.1868 139.54 62.1845 131.097 62.1845C122.654 62.1845 117.489 56.0885 117.489 47.436C117.489 38.7836 122.753 32.5893 131.196 32.5893C139.639 32.5893 145.003 38.6853 145.003 47.436Z" fill="#FF414C"/>
<path d="M177.938 71.7218V58.6449L185.09 51.2706L197.903 71.7218H211.809L193.533 42.4216L212.206 23.1503H197.009L177.938 43.5031V0H165.919V71.7218H177.938Z" fill="#FF414C"/>
<path d="M252.504 23.1503L251.809 30.6228C248.829 24.8218 241.975 21.6755 234.625 21.6755C220.818 21.6755 211.581 31.6061 211.581 46.8461C211.581 61.9878 219.924 73 234.526 73C242.472 73 248.332 69.1654 251.411 64.1509L252.206 71.7218H263.53V23.1503H252.504ZM251.213 47.436C251.213 56.1868 245.75 62.1845 237.307 62.1845C228.864 62.1845 223.699 56.0885 223.699 47.436C223.699 38.7836 228.963 32.5893 237.406 32.5893C245.849 32.5893 251.213 38.6853 251.213 47.436Z" fill="#FF414C"/>
<path d="M269.662 56.9734C269.662 66.5107 277.409 73 289.627 73C301.745 73 310.188 66.904 310.188 57.0717C310.188 49.5991 306.016 45.8629 297.772 43.9947L288.931 41.93C284.76 40.9467 282.574 39.1769 282.574 36.4239C282.574 32.7859 285.356 30.6228 290.123 30.6228C294.792 30.6228 297.573 33.2775 297.672 37.4071H309.195C309.095 27.9681 301.646 21.6755 290.62 21.6755C279.297 21.6755 271.152 27.3782 271.152 36.9155C271.152 44.683 275.423 48.8126 284.263 50.779L293.103 52.8438C297.474 53.827 298.765 55.5969 298.765 58.0549C298.765 61.5945 295.686 63.856 290.024 63.856C284.462 63.856 281.283 61.2013 281.184 56.9734H269.662Z" fill="#FF414C"/>
<path d="M329.057 71.7218V45.1746C329.057 37.8987 333.527 32.5893 341.175 32.5893C347.333 32.5893 351.406 36.5222 351.406 44.683V71.7218H363.524V41.8316C363.524 29.2463 357.167 21.6755 345.049 21.6755C337.997 21.6755 332.236 24.7235 329.156 29.443V0H316.939V71.7218H329.057Z" fill="#FF414C"/>
<defs>
<linearGradient id="paint0_linear_2_1407" x1="53.0865" y1="65.0816" x2="63.2954" y2="52.8309" gradientUnits="userSpaceOnUse">
<stop stop-color="#FF414C"/>
<stop offset="1" stop-color="#FF414C" stop-opacity="0"/>
</linearGradient>
</defs>
</svg>
